<?xml version="1.0" encoding="utf-8"?>
<!-- Generator: Adobe Illustrator 19.1.0, SVG Export Plug-In . SVG Version: 6.00 Build 0)  -->
<svg version="1.1" id="Layer_1" xmlns="http://www.w3.org/2000/svg" xmlns:xlink="http://www.w3.org/1999/xlink" x="0px" y="0px"
	 viewBox="0 0 120 120" style="enable-background:new 0 0 120 120;" xml:space="preserve">
<style type="text/css">
	.st0{fill:#162740;}
	.st1{fill:#3C91CF;}
	.st2{fill:#FFFFFF;}
	.st3{fill:#ED1C24;}
</style>
<g>
	<circle class="st0" cx="60" cy="60" r="60"/>
</g>
<g>
	<path class="st1" d="M27.3,96c-3.6-0.1-6.2-1.1-8-3s-2.7-4.9-2.7-9.2V71.3c0-6.6-2.2-10.3-6.5-10.9v-2.7c4.4-0.6,6.5-4,6.5-10.2
		V34.4c0-4.3,0.9-7.3,2.7-9.2c1.8-1.9,4.5-2.9,8-3v3.5c-2.5,0.1-4.2,0.9-5.2,2.4c-1,1.5-1.5,4-1.5,7.5v12.3c0,6.2-2,9.9-6.1,11.2
		v0.2c4.1,1.3,6.1,5.2,6.1,11.8v11.6c0,3.6,0.5,6.1,1.5,7.5c1,1.5,2.7,2.3,5.2,2.4V96z"/>
</g>
<g>
	<path class="st1" d="M110.9,60.4c-4.3,0.6-6.5,4.3-6.5,10.9v12.5c0,4.3-0.9,7.3-2.7,9.2c-1.8,1.9-4.5,2.9-8,3v-3.5
		c2.3-0.1,4-0.9,5.1-2.2c1.1-1.3,1.6-3.9,1.6-7.7V71c0-6.6,2-10.5,6.1-11.8V59c-4.1-1.3-6.1-5-6.1-11.2V35.6c0-3.8-0.5-6.3-1.6-7.7
		c-1.1-1.3-2.8-2.1-5.1-2.2v-3.5c3.6,0.1,6.2,1.1,8,3c1.8,1.9,2.7,4.9,2.7,9.2v13.2c0,6.2,2.2,9.6,6.5,10.2V60.4z"/>
</g>
<g>
	<g>
		<path class="st2" d="M59.9,31.6H49.5v29.8h-8.2V31.6H30.9v-6.7h29V31.6z"/>
		<path class="st2" d="M63.2,60v-8.1c1.5,1.2,3.1,2.2,4.8,2.8c1.7,0.6,3.5,0.9,5.2,0.9c1,0,1.9-0.1,2.7-0.3s1.4-0.4,1.9-0.8
			c0.5-0.3,0.9-0.7,1.2-1.2c0.3-0.4,0.4-0.9,0.4-1.5c0-0.7-0.2-1.3-0.6-1.9s-1-1.1-1.7-1.6c-0.7-0.5-1.5-0.9-2.5-1.4
			c-1-0.4-2-0.9-3.1-1.3c-2.8-1.2-5-2.6-6.4-4.4S63,37.6,63,35.1c0-1.9,0.4-3.5,1.1-4.9c0.8-1.4,1.8-2.5,3.1-3.4
			c1.3-0.9,2.8-1.5,4.6-1.9c1.7-0.4,3.6-0.6,5.5-0.6c1.9,0,3.6,0.1,5,0.3c1.5,0.2,2.8,0.6,4.1,1.1v7.6c-0.6-0.4-1.3-0.8-2-1.1
			c-0.7-0.3-1.5-0.6-2.2-0.8c-0.8-0.2-1.5-0.4-2.3-0.5c-0.8-0.1-1.5-0.2-2.1-0.2c-0.9,0-1.8,0.1-2.5,0.3c-0.8,0.2-1.4,0.4-1.9,0.8
			c-0.5,0.3-0.9,0.7-1.2,1.2c-0.3,0.4-0.4,1-0.4,1.5c0,0.6,0.2,1.2,0.5,1.6c0.3,0.5,0.8,0.9,1.4,1.4c0.6,0.4,1.3,0.9,2.2,1.3
			c0.8,0.4,1.8,0.8,2.9,1.3c1.5,0.6,2.8,1.3,3.9,1.9c1.2,0.7,2.2,1.5,3,2.3c0.8,0.9,1.5,1.9,1.9,3c0.4,1.1,0.7,2.4,0.7,3.9
			c0,2-0.4,3.7-1.2,5.1c-0.8,1.4-1.8,2.5-3.1,3.4c-1.3,0.9-2.9,1.5-4.6,1.8c-1.8,0.4-3.6,0.6-5.6,0.6c-2,0-3.9-0.2-5.7-0.5
			C66,61.2,64.5,60.7,63.2,60z"/>
	</g>
	<g>
		<path class="st2" d="M49.2,93.2H37.5V72H41v18.2h8.2V93.2z"/>
		<path class="st2" d="M53.6,74.9c-0.6,0-1-0.2-1.4-0.5c-0.4-0.4-0.6-0.8-0.6-1.4s0.2-1,0.6-1.4c0.4-0.4,0.9-0.6,1.4-0.6
			c0.6,0,1.1,0.2,1.5,0.6s0.6,0.8,0.6,1.4c0,0.5-0.2,1-0.6,1.4C54.7,74.7,54.2,74.9,53.6,74.9z M55.3,93.2h-3.4V78.1h3.4V93.2z"/>
		<path class="st2" d="M73.2,93.2h-3.4v-8.5c0-2.8-1-4.2-3-4.2c-1,0-1.9,0.4-2.6,1.2s-1,1.8-1,3v8.6h-3.4V78.1h3.4v2.5h0.1
			c1.1-1.9,2.8-2.9,4.9-2.9c1.6,0,2.9,0.5,3.8,1.6c0.9,1.1,1.3,2.6,1.3,4.6V93.2z"/>
		<path class="st2" d="M85.4,93c-0.7,0.3-1.5,0.5-2.6,0.5c-2.9,0-4.4-1.4-4.4-4.2v-8.5h-2.5v-2.7h2.5v-3.5l3.4-1v4.5h3.6v2.7h-3.6
			v7.6c0,0.9,0.2,1.5,0.5,1.9c0.3,0.4,0.9,0.6,1.6,0.6c0.6,0,1.1-0.2,1.5-0.5V93z"/>
	</g>
</g>
<path class="st3" d="M86.5,100l-2.9-2.9c-0.6-0.6-1.5-0.6-2.1,0L79.5,99l-1.9-1.9c-0.6-0.6-1.5-0.6-2.1,0L73.5,99l-1.9-1.9
	c-0.6-0.6-1.5-0.6-2.1,0L67.5,99l-1.9-1.9c-0.6-0.6-1.5-0.6-2.1,0L61.5,99l-1.9-1.9c-0.6-0.6-1.5-0.6-2.1,0L55.5,99l-1.9-1.9
	c-0.6-0.6-1.5-0.6-2.1,0L49.5,99l-1.9-1.9c-0.6-0.6-1.5-0.6-2.1,0L43.5,99l-1.9-1.9c-0.6-0.6-1.5-0.6-2.1,0l-2.9,2.9
	c-0.6,0.6-0.6,1.5,0,2.1c0.6,0.6,1.5,0.6,2.1,0l1.9-1.9l1.9,1.9c0.3,0.3,0.7,0.4,1.1,0.4c0,0,0,0,0.1,0c0.4,0,0.8-0.1,1.1-0.4
	l1.9-1.9l1.9,1.9c0.3,0.3,0.7,0.4,1.1,0.4c0,0,0,0,0.1,0c0.4,0,0.8-0.1,1.1-0.4l1.9-1.9l1.9,1.9c0.3,0.3,0.7,0.4,1.1,0.4
	c0,0,0,0,0.1,0c0.4,0,0.8-0.1,1.1-0.4l1.9-1.9l1.9,1.9c0.3,0.3,0.7,0.4,1.1,0.4c0,0,0,0,0.1,0c0.4,0,0.8-0.1,1.1-0.4l1.9-1.9
	l1.9,1.9c0.3,0.3,0.7,0.4,1.1,0.4c0,0,0,0,0.1,0c0.4,0,0.8-0.1,1.1-0.4l1.9-1.9l1.9,1.9c0.3,0.3,0.7,0.4,1.1,0.4c0,0,0,0,0.1,0
	c0.4,0,0.8-0.1,1.1-0.4l1.9-1.9l1.9,1.9c0.3,0.3,0.7,0.4,1.1,0.4c0,0,0,0,0.1,0c0.4,0,0.8-0.1,1.1-0.4l1.9-1.9l1.9,1.9
	c0.3,0.3,0.7,0.4,1.1,0.4s0.8-0.1,1.1-0.4C87.1,101.5,87.1,100.6,86.5,100z"/>
</svg>
